<?xml version="1.0" ?><svg data-name="Layer 1" id="Layer_1" viewBox="0 0 128 128" xmlns="http://www.w3.org/2000/svg"><title/><g><path d="M5.60115,9.52576h0c4.79632-4.04054,10.581-5.17421,12.81926-2.4999L43.88452,37.37349C54.05853,48.91373,61.878,62.31437,69.02887,76.23823L60.80245,83.1275C48.24481,73.62206,36.18133,63.73873,26.38521,52.08221L.892,21.70551C-1.34625,19.03119.77576,13.56629,5.60115,9.52576Z" style="fill: #edb56b"/><path d="M60.80245,83.1275l8.22642-6.88926c8.72059,14.47617,19.12715,27.38264,32.09175,37.96361l-8.37176,7.00554A149.06444,149.06444,0,0,0,60.80245,83.1275Z" style="fill: #edb56b"/><polygon points="60.541 82.924 68.884 75.948 69.116 76.471 69.465 76.965 61.442 83.68 60.541 82.924" style="fill: #fcc680"/><path d="M5.60115,9.52576h0c4.79632-4.04054,10.581-5.17421,12.81926-2.4999L43.88452,37.37349C54.05853,48.91373,61.878,62.31437,69.02887,76.23823L66.61618,78.244C59.58157,64.61079,51.84932,51.50084,41.87878,40.16408L16.41467,9.78737c-2.23828-2.64524-8.02294-1.54064-12.81926,2.4999h0a18.40946,18.40946,0,0,0-2.15108,2.09294A17.72868,17.72868,0,0,1,5.60115,9.52576Z" style="fill: #d6a462"/><path d="M66.61618,78.244l2.4127-2.00573c8.72059,14.47617,19.12715,27.38264,32.09175,37.96361l-2.67431,2.23828c-12.64485-10.4647-22.84793-23.19676-31.42318-37.41131Z" style="fill: #d6a462"/><path d="M91.17232,118.71819l7.76392-6.5147c1.32535-1.1121,2.96752-1.337,3.66789-.50233h0c.70037.83467.19373,2.41284-1.13162,3.52494l-7.76392,6.5147c-1.32535,1.1121-2.96752,1.337-3.66789.50233h0C89.34033,121.40846,89.847,119.83029,91.17232,118.71819Z" style="fill: #edb56b"/><polygon points="67.459 82.924 59.116 75.948 58.884 76.471 58.535 76.965 66.558 83.68 67.459 82.924" style="fill: #fcc680"/><path d="M122.39885,9.52576h0c-4.79632-4.04054-10.581-5.17421-12.81926-2.4999L84.11548,37.37349C73.94147,48.91373,66.122,62.31437,58.97113,76.23823l8.22642,6.88926c12.55764-9.50544,24.62112-19.38877,34.41724-31.04528L127.108,21.70551C129.34625,19.03119,127.22424,13.56629,122.39885,9.52576Z" style="fill: #fcc680"/><path d="M67.19755,83.1275l-8.22642-6.88926C50.25054,90.71441,39.844,103.62087,26.87937,114.20185l8.37176,7.00554A150.251,150.251,0,0,1,67.19755,83.1275Z" style="fill: #fcc680"/><path d="M122.39885,9.52576h0c-4.79632-4.04054-10.581-5.17421-12.81926-2.4999L84.11548,37.37349C73.94147,48.91373,66.122,62.31437,58.97113,76.23823l2.4127,2.00573c7.03461-13.63318,14.76686-26.74313,24.73739-38.07989L111.58533,9.78737c2.23828-2.64524,8.02294-1.54064,12.84833,2.4999h0a20.66334,20.66334,0,0,1,2.122,2.09294A17.72868,17.72868,0,0,0,122.39885,9.52576Z" style="fill: #e3ae68"/><path d="M61.38382,78.244l-2.4127-2.00573C50.25054,90.71441,39.844,103.62087,26.87937,114.20185l2.67431,2.23828c12.64485-10.4647,22.84793-23.19676,31.42318-37.41131Z" style="fill: #e3ae68"/><path d="M36.828,118.71819l-7.76392-6.5147c-1.32535-1.1121-2.96752-1.337-3.66789-.50233h0c-.70037.83467-.19373,2.41284,1.13162,3.52494l7.76392,6.5147c1.32535,1.1121,2.96752,1.337,3.66789.50233h0C38.66,121.40846,38.15331,119.83029,36.828,118.71819Z" style="fill: #fcc680"/><circle cx="64" cy="19.96139" r="14.70872" style="fill: #f7eedc"/><path d="M53.97133,30.68771a19.31425,19.31425,0,0,0,3.28475-10.84259A19.80342,19.80342,0,0,0,54.05853,9.1188l.436-.37789a20.31215,20.31215,0,0,1,3.34289,11.10421,20.00113,20.00113,0,0,1-3.4301,11.24956Z" style="fill: #b3b3b3"/><path d="M56.52937,19.20561h2.18015a.70736.70736,0,0,1,.69765.69765h0a.70736.70736,0,0,1-.69765.69765H56.52937a.70736.70736,0,0,1-.69765-.69765h0A.70736.70736,0,0,1,56.52937,19.20561Z" style="fill: #c75c5c"/><path d="M56.18054,16.18247l2.18015-.37789a.68422.68422,0,0,1,.78485.5523h0a.66924.66924,0,0,1-.5523.78485l-2.15108.37789a.67723.67723,0,0,1-.81392-.5523h0A.66924.66924,0,0,1,56.18054,16.18247Z" style="fill: #c75c5c"/><path d="M55.33755,13.24654l2.06387-.75578a.69129.69129,0,0,1,.87206.407h0a.69914.69914,0,0,1-.407.90113l-2.06387.72672a.64654.64654,0,0,1-.87206-.407h0A.66764.66764,0,0,1,55.33755,13.24654Z" style="fill: #c75c5c"/><path d="M53.97133,10.51409l1.91853-1.10461a.675.675,0,0,1,.9302.26162h0a.65209.65209,0,0,1-.26162.9302L54.669,11.7059a.70083.70083,0,0,1-.9302-.26162h0A.66624.66624,0,0,1,53.97133,10.51409Z" style="fill: #c75c5c"/><path d="M56.32588,22.25781l2.15108.37789a.67723.67723,0,0,1,.5523.81392h0a.69074.69074,0,0,1-.78485.5523L56.09334,23.624a.73484.73484,0,0,1-.58137-.81392h0A.73875.73875,0,0,1,56.32588,22.25781Z" style="fill: #c75c5c"/><path d="M55.59917,25.22281l2.06387.75578a.69129.69129,0,0,1,.407.87206h0a.67651.67651,0,0,1-.90113.407l-2.0348-.72672a.67651.67651,0,0,1-.407-.90113h0A.69129.69129,0,0,1,55.59917,25.22281Z" style="fill: #c75c5c"/><path d="M54.37829,28.0134,56.26775,29.118a.67235.67235,0,0,1,.23255.9302h0a.65209.65209,0,0,1-.9302.26162l-1.88946-1.10461a.70083.70083,0,0,1-.26162-.9302h0A.73643.73643,0,0,1,54.37829,28.0134Z" style="fill: #c75c5c"/><path d="M74.02867,30.68771a19.45478,19.45478,0,0,1-3.28475-10.84259A19.80342,19.80342,0,0,1,73.94147,9.1188l-.436-.407a20.484,20.484,0,0,0-3.34289,11.13328,20.00113,20.00113,0,0,0,3.4301,11.24956Z" style="fill: #b3b3b3"/><path d="M71.47063,19.20561H69.29049a.70736.70736,0,0,0-.69765.69765h0a.68266.68266,0,0,0,.69765.66858h2.18015a.68266.68266,0,0,0,.69765-.66858h0A.70736.70736,0,0,0,71.47063,19.20561Z" style="fill: #c75c5c"/><path d="M71.79039,16.18247l-2.15108-.37789a.64979.64979,0,0,0-.78485.5523h0a.66924.66924,0,0,0,.5523.78485l2.15108.37789a.71368.71368,0,0,0,.81392-.5523h0A.6895.6895,0,0,0,71.79039,16.18247Z" style="fill: #c75c5c"/><path d="M72.66245,13.24654l-2.06387-.75578a.69129.69129,0,0,0-.87206.407h0a.66764.66764,0,0,0,.407.87206l2.06387.75578a.6782.6782,0,0,0,.87206-.407h0A.69129.69129,0,0,0,72.66245,13.24654Z" style="fill: #c75c5c"/><path d="M73.9996,10.51409,72.11014,9.40948a.66624.66624,0,0,0-.9302.23255h0a.7.7,0,0,0,.23255.95926L73.331,11.67683a.67235.67235,0,0,0,.9302-.23255h0A.675.675,0,0,0,73.9996,10.51409Z" style="fill: #c75c5c"/><path d="M71.67412,22.25781,69.523,22.6357a.70552.70552,0,0,0-.58137.78485h0a.73484.73484,0,0,0,.81392.58137l2.15108-.37789a.69109.69109,0,0,0,.5523-.81392h0A.66924.66924,0,0,0,71.67412,22.25781Z" style="fill: #c75c5c"/><path d="M72.40083,25.22281l-2.06387.75578a.66764.66764,0,0,0-.407.87206h0a.66764.66764,0,0,0,.87206.407l2.06387-.75578a.66764.66764,0,0,0,.407-.87206h0A.69129.69129,0,0,0,72.40083,25.22281Z" style="fill: #c75c5c"/><path d="M73.62171,28.0134,71.73225,29.118a.70083.70083,0,0,0-.26162.9302h0a.73643.73643,0,0,0,.95926.26162l1.88946-1.10461a.70083.70083,0,0,0,.26162-.9302h0A.74458.74458,0,0,0,73.62171,28.0134Z" style="fill: #c75c5c"/><path d="M72.895,8.24674A14.70894,14.70894,0,0,1,64,34.67011a14.77343,14.77343,0,0,1-11.71465-5.81372A14.70224,14.70224,0,0,0,72.895,8.24674Z" style="fill: #1a1a1a;fill-opacity: 0.10196100175380707"/></g></svg>